<?xml version="1.0" encoding="UTF-8"?>
<svg id="Layer_1" data-name="Layer 1" xmlns="http://www.w3.org/2000/svg" viewBox="0 0 332 221.33">
  <defs>
    <style>
      .cls-1 {
        fill: #d1bedd;
      }
    </style>
  </defs>
  <path class="cls-1" d="M71.94,177.07h188.13c7.61,0,14.12-2.71,19.54-8.13,5.42-5.42,8.13-11.93,8.13-19.54V27.67c0-7.61-2.71-14.12-8.13-19.54-5.42-5.42-11.93-8.13-19.54-8.13H71.94c-7.61,0-14.12,2.71-19.54,8.13-5.42,5.42-8.13,11.93-8.13,19.54v121.73c0,7.61,2.71,14.12,8.13,19.54,5.42,5.42,11.93,8.13,19.54,8.13ZM66.4,27.67c0-1.5.55-2.8,1.64-3.89,1.1-1.09,2.39-1.64,3.89-1.64h188.13c1.5,0,2.8.55,3.89,1.64,1.09,1.1,1.64,2.39,1.64,3.89v121.73c0,1.5-.55,2.8-1.64,3.89-1.1,1.1-2.39,1.64-3.89,1.64H71.93c-1.5,0-2.8-.55-3.89-1.64-1.09-1.1-1.64-2.39-1.64-3.89V27.67Z"/>
  <path class="cls-1" d="M304.34,188.13H0v16.6c0,4.61,2.71,8.53,8.13,11.76,5.42,3.23,11.93,4.84,19.54,4.84h276.67c7.61,0,14.12-1.61,19.54-4.84,5.42-3.23,8.13-7.14,8.13-11.76v-16.6h-27.67ZM179.83,204.73h-27.67c-1.84,0-2.76-.92-2.76-2.77s.92-2.77,2.76-2.77h27.67c1.84,0,2.77.93,2.77,2.77,0,1.84-.92,2.77-2.77,2.77Z"/>
</svg>